<?xml version="1.0" encoding="utf-8"?>
<!-- Generator: Adobe Illustrator 22.1.0, SVG Export Plug-In . SVG Version: 6.00 Build 0)  -->
<!DOCTYPE svg PUBLIC "-//W3C//DTD SVG 1.1//EN" "http://www.w3.org/Graphics/SVG/1.1/DTD/svg11.dtd">
<svg version="1.1" id="Layer_1" xmlns="http://www.w3.org/2000/svg" xmlns:xlink="http://www.w3.org/1999/xlink" x="0px" y="0px"
	 viewBox="0 0 144 12.6" style="enable-background:new 0 0 144 12.6;" xml:space="preserve">
<style type="text/css">
	.st0{fill:#FFFFFF;}
</style>
<g>
	<path class="st0" d="M10.6,8.7c0.2,0.7,0.2,1.2,0.2,1.2h0c0,0,0-0.6,0.2-1.2L13,0.5h2.2l-3,11.8H9.7l-1.8-7
		C7.7,4.6,7.6,3.8,7.6,3.8h0c0,0-0.1,0.8-0.3,1.5l-1.8,7H2.9L0,0.5h2.2l1.9,8.1c0.1,0.7,0.2,1.2,0.2,1.2h0c0,0,0-0.6,0.2-1.2
		l2.1-8.1h1.9L10.6,8.7z"/>
	<path class="st0" d="M18.4,0.5h2.1v11.8h-2.1V0.5z"/>
	<path class="st0" d="M24.8,0.5h3.8c1.3,0,1.9,0.1,2.4,0.3c1.2,0.5,1.9,1.7,1.9,3.2c0,1.4-0.7,2.7-2,3.2v0c0,0,0.2,0.2,0.4,0.6
		l2.4,4.4h-2.4L29,7.9H27v4.4h-2.1V0.5z M28.9,6c1.1,0,1.9-0.7,1.9-1.9c0-1.1-0.5-1.8-2.2-1.8H27V6H28.9z"/>
	<path class="st0" d="M37.1,0.5h7v1.8h-4.9v3.1h4v1.8h-4v3.2h5.2v1.8h-7.3V0.5z"/>
	<path class="st0" d="M47.9,0.5h4c3.6,0,6,2.2,6,5.9s-2.4,5.9-6,5.9h-4V0.5z M51.8,10.5c2.4,0,3.9-1.4,3.9-4.1c0-2.6-1.6-4-3.9-4H50
		v8.1H51.8z"/>
	<path class="st0" d="M67.1,9.3c0,0,1.3,1.2,2.9,1.2c0.9,0,1.7-0.5,1.7-1.4c0-2.1-5.6-1.7-5.6-5.4c0-2,1.7-3.4,3.9-3.4
		c2.3,0,3.5,1.3,3.5,1.3l-0.9,1.7c0,0-1.1-1-2.6-1c-1,0-1.8,0.6-1.8,1.4c0,2.1,5.5,1.6,5.5,5.3c0,1.9-1.4,3.4-3.9,3.4
		c-2.6,0-4.1-1.6-4.1-1.6L67.1,9.3z"/>
	<path class="st0" d="M79.8,2.4h-3.9V0.5h9.9v1.8h-3.9v9.9h-2.1V2.4z"/>
	<path class="st0" d="M88.5,0.5h2.1v7.5c0,1.6,1,2.5,2.6,2.5s2.6-0.9,2.6-2.5V0.5H98v7.5c0,2.6-1.9,4.4-4.7,4.4
		c-2.9,0-4.8-1.8-4.8-4.4V0.5z"/>
	<path class="st0" d="M102.1,0.5h4c3.6,0,6,2.2,6,5.9s-2.4,5.9-6,5.9h-4V0.5z M106,10.5c2.4,0,3.9-1.4,3.9-4.1c0-2.6-1.6-4-3.9-4
		h-1.8v8.1H106z"/>
	<path class="st0" d="M115.7,0.5h2.1v11.8h-2.1V0.5z"/>
	<path class="st0" d="M137.2,9.3c0,0,1.3,1.2,2.9,1.2c0.9,0,1.7-0.5,1.7-1.4c0-2.1-5.6-1.7-5.6-5.4c0-2,1.7-3.4,3.9-3.4
		c2.3,0,3.5,1.3,3.5,1.3l-0.9,1.7c0,0-1.1-1-2.6-1c-1,0-1.8,0.6-1.8,1.4c0,2.1,5.5,1.6,5.5,5.3c0,1.9-1.4,3.4-3.9,3.4
		c-2.6,0-4.1-1.6-4.1-1.6L137.2,9.3z"/>
	<g>
		<path class="st0" d="M123.6,5.6c0.3-2,1.9-3.4,3.8-3.4s3.5,1.4,3.8,3.4h2.2c-0.3-3-2.8-5.3-6-5.3c-3.2,0-5.7,2.3-6,5.3H123.6z"/>
		<path class="st0" d="M131.2,7.1c-0.3,2-1.9,3.4-3.8,3.4c-1.9,0-3.5-1.4-3.8-3.4h-2.2c0.4,3.1,2.8,5.4,6,5.4c3.2,0,5.6-2.3,6-5.4
			H131.2z"/>
	</g>
</g>
</svg>
